<?xml version="1.0" encoding="UTF-8" standalone="no"?>
<svg
   xmlns:dc="http://purl.org/dc/elements/1.1/"
   xmlns:cc="http://creativecommons.org/ns#"
   xmlns:rdf="http://www.w3.org/1999/02/22-rdf-syntax-ns#"
   xmlns="http://www.w3.org/2000/svg"
   xmlns:inkscape="http://www.inkscape.org/namespaces/inkscape"
   version="1.1"
   width="502.84625" height="438.77374" viewBox="0 0 402.277 351.01899"
   inkscape:version="0.48.4 r9939">
  <metadata>
    <rdf:RDF>
      <cc:Work rdf:about="">
        <dc:format>image/svg+xml</dc:format>
        <dc:type rdf:resource="http://purl.org/dc/dcmitype/StillImage"/>
        <dc:title>Triangle Plot - Major and minor grid lines.svg</dc:title>
      </cc:Work>
    </rdf:RDF>
  </metadata>
  <g
     inkscape:groupmode="layer"
     id="layer2"
     inkscape:label="Major Grid Lines"
     style="fill:none;stroke:#161413;stroke-width:0.40000001;stroke-linecap:round;stroke-linejoin:round;stroke-miterlimit:4;stroke-dasharray:none;display:inline"
     transform="translate(-82.164469,-230.73627)">
    <path d="m 267.89947,280.52927 35.5,0"/>
    <path d="m 303.39947,280.52927 -159.5,276"/>
    <path d="m 427.39947,556.52927 -159.5,-276"/>
    <path d="m 250.14947,311.02927 71,0"/>
    <path d="m 391.89947,556.52927 -141.75,-245.5"/>
    <path d="m 321.14947,311.02927 -141.75,245.5"/>
    <path d="m 232.64947,341.77927 106.25,0"/>
    <path d="m 338.89947,341.77927 -124,214.75"/>
    <path d="m 214.89947,372.52927 141.5,0"/>
    <path d="m 356.39947,556.52927 -123.75,-214.75"/>
    <path d="m 197.14947,403.02927 177,0"/>
    <path d="m 321.14947,556.52927 -106.25,-184"/>
    <path d="m 179.39947,433.77927 212.5,0"/>
    <path d="m 356.39947,372.52927 -106.25,184"/>
    <path d="m 143.89947,495.02927 283.5,0"/>
    <path d="m 161.64947,464.52927 248,0"/>
    <path d="m 285.64947,556.52927 -88.5,-153.5"/>
    <path d="m 374.14947,403.02927 -88.5,153.5"/>
    <path d="m 214.89947,556.52927 -53.25,-92"/>
    <path d="m 179.39947,556.52927 -35.5,-61.5"/>
    <path d="m 143.89947,556.52927 -17.5,-30.75"/>
    <path d="m 409.64947,464.52927 -53.25,92"/>
    <path d="m 427.39947,495.02927 -35.5,61.5"/>
    <path d="m 444.89947,525.77927 -17.5,30.75"/>
    <path d="m 391.89947,433.77927 -70.75,122.75"/>
    <path
       style="fill:none;stroke:#000000;stroke-width:0.5;stroke-linecap:round;stroke-linejoin:round;stroke-miterlimit:4;stroke-opacity:1;stroke-dasharray:none"
       d="m 157.995,657.21704 398.13774,0.007"
       transform="scale(0.8,0.8)" />
    <path
       style="fill:none;stroke:#000000;stroke-width:0.5;stroke-linecap:butt;stroke-linejoin:miter;stroke-miterlimit:4;stroke-opacity:1;stroke-dasharray:none"
       d="m 224.3479,542.22409 88.33894,153.4375"
       transform="scale(0.8,0.8)" />
  </g>
  <g
     inkscape:groupmode="layer"
     id="layer5"
     inkscape:label="Tick marks"
     style="fill:none;stroke:#161413;stroke-width:0.80000001;stroke-linecap:round;stroke-linejoin:round;stroke-miterlimit:4;stroke-dasharray:none;display:inline"
     transform="translate(-82.164469,-230.73627)">
    <path d="m 106.89947,559.52927 1.75,-3"/>
    <path d="m 142.14947,559.52927 1.75,-3"/>
    <path d="m 177.64947,559.52927 1.75,-3"/>
    <path d="m 212.89947,559.52927 2,-3"/>
    <path d="m 248.39947,559.52927 1.75,-3"/>
    <path d="m 283.89947,559.52927 1.75,-3"/>
    <path d="m 319.14947,559.52927 2,-3"/>
    <path d="m 354.64947,559.52927 1.75,-3"/>
    <path d="m 390.14947,559.52927 1.75,-3"/>
    <path d="m 425.39947,559.52927 2,-3"/>
    <path d="m 460.89947,559.52927 1.75,-3"/>
    <path d="m 466.39947,556.52927 -3.75,0"/>
    <path d="m 106.89947,553.27927 1.75,3.25"/>
    <path d="m 289.14947,249.77927 -3.5,0"/>
    <path d="m 283.89947,246.52927 1.75,3.25"/>
    <path d="m 266.14947,277.27927 1.75,3.25"/>
    <path d="m 248.39947,308.02927 1.75,3"/>
    <path d="m 230.64947,338.52927 2,3.25"/>
    <path d="m 212.89947,369.27927 2,3.25"/>
    <path d="m 195.39947,400.02927 1.75,3"/>
    <path d="m 177.64947,430.52927 1.75,3.25"/>
    <path d="m 159.89947,461.27927 1.75,3.25"/>
    <path d="m 142.14947,492.02927 1.75,3"/>
    <path d="m 124.39947,522.52927 2,3.25"/>
    <path d="m 448.64947,525.77927 -3.75,0"/>
    <path d="m 430.89947,495.02927 -3.5,0"/>
    <path d="m 413.14947,464.52927 -3.5,0"/>
    <path d="m 395.39947,433.77927 -3.5,0"/>
    <path d="m 377.89947,403.02927 -3.75,0"/>
    <path d="m 360.14947,372.52927 -3.75,0"/>
    <path d="m 342.39947,341.77927 -3.5,0"/>
    <path d="m 324.64947,311.02927 -3.5,0"/>
    <path d="m 306.89947,280.52927 -3.5,0"/>
  </g>
  <g
     inkscape:groupmode="layer"
     id="layer1"
     inkscape:label="Triangle"
     style="fill:none;stroke:#161413;stroke-width:0.80000001;stroke-linecap:round;stroke-linejoin:round;stroke-miterlimit:4;stroke-dasharray:none;display:inline"
     transform="translate(-82.164469,-230.73627)">
    <path d="m 462.64947,556.52927 -177,-306.75"/>
    <path d="m 285.64947,249.77927 -177,306.75"/>
    <path d="m 108.64947,556.52927 354,0"/>
  </g>
  <g
     inkscape:groupmode="layer"
     id="layer4"
     inkscape:label="Numbers"
     style="fill:#161413;fill-rule:evenodd;stroke:none;display:inline"
     transform="translate(-82.164469,-230.73627)">
    <path
       d="m 104.38347,566.48627 c -0.656,0 -1.25,0.289 -1.621,0.773 -0.457,0.617 -0.684,1.562 -0.684,2.863 0,2.375 0.793,3.633 2.305,3.633 1.492,0 2.308,-1.258 2.308,-3.574 0,-1.371 -0.218,-2.285 -0.683,-2.922 -0.371,-0.496 -0.957,-0.773 -1.625,-0.773 z m 0,0.773 c 0.945,0 1.414,0.953 1.414,2.844 0,1.996 -0.457,2.929 -1.434,2.929 -0.925,0 -1.39,-0.972 -1.39,-2.902 0,-1.926 0.465,-2.871 1.41,-2.871 z"/>
    <path
       d="m 137.22747,568.51327 0,5.016 0.875,0 0,-7.043 -0.578,0 c -0.309,1.082 -0.508,1.23 -1.86,1.402 l 0,0.625 1.563,0 z"/>
    <path
       d="m 142.94247,566.48627 c -0.656,0 -1.25,0.289 -1.621,0.773 -0.457,0.617 -0.683,1.562 -0.683,2.863 0,2.375 0.793,3.633 2.304,3.633 1.493,0 2.309,-1.258 2.309,-3.574 0,-1.371 -0.219,-2.285 -0.684,-2.922 -0.371,-0.496 -0.957,-0.773 -1.625,-0.773 z m 0,0.773 c 0.946,0 1.415,0.953 1.415,2.844 0,1.996 -0.458,2.929 -1.434,2.929 -0.926,0 -1.391,-0.972 -1.391,-2.902 0,-1.926 0.465,-2.871 1.41,-2.871 z"/>
    <path
       d="m 175.18447,572.66527 -3.711,0 c 0.09,-0.578 0.406,-0.945 1.273,-1.453 l 0.992,-0.535 c 0.989,-0.535 1.496,-1.262 1.496,-2.125 0,-0.586 -0.242,-1.133 -0.66,-1.512 -0.418,-0.375 -0.933,-0.554 -1.601,-0.554 -0.895,0 -1.563,0.316 -1.949,0.914 -0.25,0.379 -0.36,0.812 -0.379,1.531 l 0.875,0 c 0.031,-0.477 0.089,-0.766 0.211,-0.996 0.23,-0.426 0.687,-0.684 1.214,-0.684 0.793,0 1.391,0.567 1.391,1.32 0,0.555 -0.328,1.036 -0.953,1.391 l -0.918,0.516 c -1.473,0.836 -1.899,1.5 -1.977,3.051 l 4.696,0 0,-0.864 z"/>
    <path
       d="m 178.44247,566.48627 c -0.656,0 -1.25,0.289 -1.621,0.773 -0.457,0.617 -0.683,1.562 -0.683,2.863 0,2.375 0.793,3.633 2.304,3.633 1.493,0 2.309,-1.258 2.309,-3.574 0,-1.371 -0.219,-2.285 -0.684,-2.922 -0.371,-0.496 -0.957,-0.773 -1.625,-0.773 z m 0,0.773 c 0.946,0 1.415,0.953 1.415,2.844 0,1.996 -0.458,2.929 -1.434,2.929 -0.926,0 -1.391,-0.972 -1.391,-2.902 0,-1.926 0.465,-2.871 1.41,-2.871 z"/>
    <path
       d="m 207.59847,570.30227 0.109,0 0.367,-0.012 c 0.965,0 1.465,0.438 1.465,1.281 0,0.883 -0.551,1.411 -1.465,1.411 -0.953,0 -1.422,-0.477 -1.48,-1.5 l -0.875,0 c 0.039,0.566 0.137,0.933 0.305,1.254 0.359,0.671 1.054,1.019 2.023,1.019 1.449,0 2.387,-0.863 2.387,-2.195 0,-0.891 -0.348,-1.391 -1.196,-1.676 0.657,-0.258 0.985,-0.758 0.985,-1.461 0,-1.211 -0.805,-1.937 -2.149,-1.937 -1.422,0 -2.179,0.773 -2.207,2.273 l 0.875,0 c 0.008,-0.426 0.051,-0.664 0.16,-0.883 0.2,-0.387 0.637,-0.625 1.184,-0.625 0.773,0 1.242,0.457 1.242,1.203 0,0.496 -0.179,0.793 -0.566,0.953 -0.238,0.098 -0.547,0.137 -1.164,0.149 l 0,0.746 z"/>
    <path
       d="m 213.69247,566.48627 c -0.656,0 -1.25,0.289 -1.621,0.773 -0.457,0.617 -0.683,1.562 -0.683,2.863 0,2.375 0.793,3.633 2.304,3.633 1.493,0 2.309,-1.258 2.309,-3.574 0,-1.371 -0.219,-2.285 -0.684,-2.922 -0.371,-0.496 -0.957,-0.773 -1.625,-0.773 z m 0,0.773 c 0.946,0 1.415,0.953 1.415,2.844 0,1.996 -0.458,2.929 -1.434,2.929 -0.926,0 -1.391,-0.972 -1.391,-2.902 0,-1.926 0.465,-2.871 1.41,-2.871 z"/>
    <path
       d="m 244.15247,571.84127 0,1.688 0.875,0 0,-1.688 1.043,0 0,-0.785 -1.043,0 0,-4.57 -0.648,0 -3.203,4.429 0,0.926 2.976,0 z m 0,-0.785 -2.211,0 2.211,-3.082 0,3.082 z"/>
    <path
       d="m 249.19247,566.48627 c -0.656,0 -1.25,0.289 -1.621,0.773 -0.457,0.617 -0.683,1.562 -0.683,2.863 0,2.375 0.793,3.633 2.304,3.633 1.493,0 2.309,-1.258 2.309,-3.574 0,-1.371 -0.219,-2.285 -0.684,-2.922 -0.371,-0.496 -0.957,-0.773 -1.625,-0.773 z m 0,0.773 c 0.946,0 1.415,0.953 1.415,2.844 0,1.996 -0.458,2.929 -1.434,2.929 -0.926,0 -1.391,-0.972 -1.391,-2.902 0,-1.926 0.465,-2.871 1.41,-2.871 z"/>
    <path
       d="m 281.13347,566.48627 -3.641,0 -0.527,3.835 0.805,0 c 0.41,-0.488 0.75,-0.656 1.296,-0.656 0.946,0 1.54,0.645 1.54,1.688 0,1.011 -0.586,1.629 -1.54,1.629 -0.769,0 -1.234,-0.387 -1.445,-1.18 l -0.875,0 c 0.121,0.574 0.219,0.852 0.43,1.109 0.398,0.539 1.113,0.844 1.91,0.844 1.422,0 2.418,-1.031 2.418,-2.519 0,-1.391 -0.926,-2.348 -2.281,-2.348 -0.496,0 -0.895,0.129 -1.301,0.43 l 0.277,-1.969 2.934,0 0,-0.863 z"/>
    <path
       d="m 284.69247,566.48627 c -0.656,0 -1.25,0.289 -1.621,0.773 -0.457,0.617 -0.683,1.562 -0.683,2.863 0,2.375 0.793,3.633 2.304,3.633 1.493,0 2.309,-1.258 2.309,-3.574 0,-1.371 -0.219,-2.285 -0.684,-2.922 -0.371,-0.496 -0.957,-0.773 -1.625,-0.773 z m 0,0.773 c 0.946,0 1.415,0.953 1.415,2.844 0,1.996 -0.458,2.929 -1.434,2.929 -0.926,0 -1.391,-0.972 -1.391,-2.902 0,-1.926 0.465,-2.871 1.41,-2.871 z"/>
    <path
       d="m 316.60247,568.32127 c -0.168,-1.152 -0.922,-1.835 -2,-1.835 -0.774,0 -1.469,0.378 -1.887,1.003 -0.441,0.684 -0.637,1.551 -0.637,2.832 0,1.18 0.176,1.934 0.594,2.563 0.379,0.566 0.996,0.871 1.773,0.871 1.344,0 2.309,-0.992 2.309,-2.371 0,-1.313 -0.898,-2.234 -2.16,-2.234 -0.695,0 -1.242,0.265 -1.621,0.781 0.008,-1.719 0.566,-2.672 1.57,-2.672 0.617,0 1.047,0.391 1.184,1.062 l 0.875,0 z m -2.118,1.602 c 0.844,0 1.372,0.586 1.372,1.531 0,0.883 -0.594,1.528 -1.403,1.528 -0.816,0 -1.433,-0.676 -1.433,-1.578 0,-0.875 0.597,-1.481 1.464,-1.481 z"/>
    <path
       d="m 319.94247,566.48627 c -0.656,0 -1.25,0.289 -1.621,0.773 -0.457,0.617 -0.683,1.562 -0.683,2.863 0,2.375 0.793,3.633 2.304,3.633 1.493,0 2.309,-1.258 2.309,-3.574 0,-1.371 -0.219,-2.285 -0.684,-2.922 -0.371,-0.496 -0.957,-0.773 -1.625,-0.773 z m 0,0.773 c 0.946,0 1.415,0.953 1.415,2.844 0,1.996 -0.458,2.929 -1.434,2.929 -0.926,0 -1.391,-0.972 -1.391,-2.902 0,-1.926 0.465,-2.871 1.41,-2.871 z"/>
    <path
       d="m 352.32047,566.48627 -4.714,0 0,0.863 3.812,0 c -1.684,2.394 -2.371,3.863 -2.898,6.18 l 0.937,0 c 0.387,-2.254 1.274,-4.192 2.863,-6.309 l 0,-0.734 z"/>
    <path
       d="m 355.44247,566.48627 c -0.656,0 -1.25,0.289 -1.621,0.773 -0.457,0.617 -0.683,1.562 -0.683,2.863 0,2.375 0.793,3.633 2.304,3.633 1.493,0 2.309,-1.258 2.309,-3.574 0,-1.371 -0.219,-2.285 -0.684,-2.922 -0.371,-0.496 -0.957,-0.773 -1.625,-0.773 z m 0,0.773 c 0.946,0 1.415,0.953 1.415,2.844 0,1.996 -0.458,2.929 -1.434,2.929 -0.926,0 -1.391,-0.972 -1.391,-2.902 0,-1.926 0.465,-2.871 1.41,-2.871 z"/>
    <path
       d="m 386.53947,569.82127 c 0.727,-0.433 0.965,-0.792 0.965,-1.457 0,-1.105 -0.867,-1.878 -2.121,-1.878 -1.242,0 -2.117,0.773 -2.117,1.878 0,0.653 0.238,1.012 0.953,1.457 -0.805,0.391 -1.203,0.977 -1.203,1.75 0,1.293 0.976,2.184 2.367,2.184 1.394,0 2.371,-0.891 2.371,-2.172 0,-0.785 -0.398,-1.371 -1.215,-1.762 z m -1.156,-2.562 c 0.746,0 1.226,0.437 1.226,1.125 0,0.656 -0.488,1.09 -1.226,1.09 -0.734,0 -1.223,-0.434 -1.223,-1.102 0,-0.676 0.489,-1.113 1.223,-1.113 z m 0,2.953 c 0.879,0 1.473,0.555 1.473,1.379 0,0.836 -0.594,1.391 -1.493,1.391 -0.855,0 -1.453,-0.567 -1.453,-1.391 0,-0.824 0.598,-1.379 1.473,-1.379 z"/>
    <path
       d="m 390.94247,566.48627 c -0.656,0 -1.25,0.289 -1.621,0.773 -0.457,0.617 -0.683,1.562 -0.683,2.863 0,2.375 0.793,3.633 2.304,3.633 1.493,0 2.309,-1.258 2.309,-3.574 0,-1.371 -0.219,-2.285 -0.684,-2.922 -0.371,-0.496 -0.957,-0.773 -1.625,-0.773 z m 0,0.773 c 0.946,0 1.415,0.953 1.415,2.844 0,1.996 -0.458,2.929 -1.434,2.929 -0.926,0 -1.391,-0.972 -1.391,-2.902 0,-1.926 0.465,-2.871 1.41,-2.871 z"/>
    <path
       d="m 418.42647,571.91927 c 0.168,1.152 0.926,1.836 2,1.836 0.777,0 1.48,-0.375 1.89,-1 0.446,-0.687 0.645,-1.551 0.645,-2.832 0,-1.184 -0.176,-1.937 -0.594,-2.562 -0.39,-0.567 -1.008,-0.875 -1.781,-0.875 -1.344,0 -2.309,0.992 -2.309,2.375 0,1.308 0.895,2.234 2.168,2.234 0.668,0 1.153,-0.238 1.614,-0.785 -0.012,1.719 -0.571,2.672 -1.575,2.672 -0.617,0 -1.043,-0.387 -1.183,-1.063 l -0.875,0 z m 2.148,-4.668 c 0.817,0 1.434,0.676 1.434,1.59 0,0.863 -0.606,1.48 -1.461,1.48 -0.848,0 -1.375,-0.585 -1.375,-1.531 0,-0.894 0.598,-1.539 1.402,-1.539 z"/>
    <path
       d="m 426.19247,566.48627 c -0.656,0 -1.25,0.289 -1.621,0.773 -0.457,0.617 -0.683,1.562 -0.683,2.863 0,2.375 0.793,3.633 2.304,3.633 1.493,0 2.309,-1.258 2.309,-3.574 0,-1.371 -0.219,-2.285 -0.684,-2.922 -0.371,-0.496 -0.957,-0.773 -1.625,-0.773 z m 0,0.773 c 0.946,0 1.415,0.953 1.415,2.844 0,1.996 -0.458,2.929 -1.434,2.929 -0.926,0 -1.391,-0.972 -1.391,-2.902 0,-1.926 0.465,-2.871 1.41,-2.871 z"/>
    <path
       d="m 453.47747,568.51327 0,5.016 0.875,0 0,-7.043 -0.578,0 c -0.309,1.082 -0.508,1.23 -1.86,1.402 l 0,0.625 1.563,0 z"/>
    <path
       d="m 459.19247,566.48627 c -0.656,0 -1.25,0.289 -1.621,0.773 -0.457,0.617 -0.683,1.562 -0.683,2.863 0,2.375 0.793,3.633 2.304,3.633 1.493,0 2.309,-1.258 2.309,-3.574 0,-1.371 -0.219,-2.285 -0.684,-2.922 -0.371,-0.496 -0.957,-0.773 -1.625,-0.773 z m 0,0.773 c 0.946,0 1.415,0.953 1.415,2.844 0,1.996 -0.458,2.929 -1.434,2.929 -0.926,0 -1.391,-0.972 -1.391,-2.902 0,-1.926 0.465,-2.871 1.41,-2.871 z"/>
    <path
       d="m 464.75247,566.48627 c -0.656,0 -1.25,0.289 -1.621,0.773 -0.457,0.617 -0.684,1.562 -0.684,2.863 0,2.375 0.793,3.633 2.305,3.633 1.492,0 2.309,-1.258 2.309,-3.574 0,-1.371 -0.219,-2.285 -0.684,-2.922 -0.371,-0.496 -0.957,-0.773 -1.625,-0.773 z m 0,0.773 c 0.945,0 1.414,0.953 1.414,2.844 0,1.996 -0.457,2.929 -1.434,2.929 -0.925,0 -1.39,-0.972 -1.39,-2.902 0,-1.926 0.465,-2.871 1.41,-2.871 z"/>
    <path
       d="m 474.13347,552.98627 c -0.656,0 -1.25,0.289 -1.621,0.773 -0.457,0.617 -0.684,1.562 -0.684,2.863 0,2.375 0.793,3.633 2.305,3.633 1.492,0 2.308,-1.258 2.308,-3.574 0,-1.371 -0.218,-2.285 -0.683,-2.922 -0.371,-0.496 -0.957,-0.773 -1.625,-0.773 z m 0,0.773 c 0.945,0 1.414,0.953 1.414,2.844 0,1.996 -0.457,2.929 -1.434,2.929 -0.925,0 -1.39,-0.972 -1.39,-2.902 0,-1.926 0.465,-2.871 1.41,-2.871 z"/>
    <path
       d="m 456.22747,524.26327 0,5.016 0.875,0 0,-7.043 -0.578,0 c -0.309,1.082 -0.508,1.23 -1.86,1.402 l 0,0.625 1.563,0 z"/>
    <path
       d="m 461.94247,522.23627 c -0.656,0 -1.25,0.289 -1.621,0.773 -0.457,0.617 -0.683,1.562 -0.683,2.863 0,2.375 0.793,3.633 2.304,3.633 1.493,0 2.309,-1.258 2.309,-3.574 0,-1.371 -0.219,-2.285 -0.684,-2.922 -0.371,-0.496 -0.957,-0.773 -1.625,-0.773 z m 0,0.773 c 0.946,0 1.415,0.953 1.415,2.844 0,1.996 -0.458,2.929 -1.434,2.929 -0.926,0 -1.391,-0.972 -1.391,-2.902 0,-1.926 0.465,-2.871 1.41,-2.871 z"/>
    <path
       d="m 440.93447,497.66527 -3.711,0 c 0.09,-0.578 0.406,-0.945 1.273,-1.453 l 0.992,-0.535 c 0.989,-0.535 1.496,-1.262 1.496,-2.125 0,-0.586 -0.242,-1.133 -0.66,-1.512 -0.418,-0.375 -0.933,-0.554 -1.601,-0.554 -0.895,0 -1.563,0.316 -1.949,0.914 -0.25,0.379 -0.36,0.812 -0.379,1.531 l 0.875,0 c 0.031,-0.477 0.089,-0.766 0.211,-0.996 0.23,-0.426 0.687,-0.684 1.214,-0.684 0.793,0 1.391,0.567 1.391,1.32 0,0.555 -0.328,1.036 -0.953,1.391 l -0.918,0.516 c -1.473,0.836 -1.899,1.5 -1.977,3.051 l 4.696,0 0,-0.864 z"/>
    <path
       d="m 444.19247,491.48627 c -0.656,0 -1.25,0.289 -1.621,0.773 -0.457,0.617 -0.683,1.562 -0.683,2.863 0,2.375 0.793,3.633 2.304,3.633 1.493,0 2.309,-1.258 2.309,-3.574 0,-1.371 -0.219,-2.285 -0.684,-2.922 -0.371,-0.496 -0.957,-0.773 -1.625,-0.773 z m 0,0.773 c 0.946,0 1.415,0.953 1.415,2.844 0,1.996 -0.458,2.929 -1.434,2.929 -0.926,0 -1.391,-0.972 -1.391,-2.902 0,-1.926 0.465,-2.871 1.41,-2.871 z"/>
    <path
       d="m 420.34847,464.55227 0.109,0 0.367,-0.012 c 0.965,0 1.465,0.438 1.465,1.281 0,0.883 -0.551,1.411 -1.465,1.411 -0.953,0 -1.422,-0.477 -1.48,-1.5 l -0.875,0 c 0.039,0.566 0.137,0.933 0.305,1.254 0.359,0.671 1.054,1.019 2.023,1.019 1.449,0 2.387,-0.863 2.387,-2.195 0,-0.891 -0.348,-1.391 -1.196,-1.676 0.657,-0.258 0.985,-0.758 0.985,-1.461 0,-1.211 -0.805,-1.937 -2.149,-1.937 -1.422,0 -2.179,0.773 -2.207,2.273 l 0.875,0 c 0.008,-0.426 0.051,-0.664 0.16,-0.883 0.2,-0.387 0.637,-0.625 1.184,-0.625 0.773,0 1.242,0.457 1.242,1.203 0,0.496 -0.179,0.793 -0.566,0.953 -0.238,0.098 -0.547,0.137 -1.164,0.149 l 0,0.746 z"/>
    <path
       d="m 426.44247,460.73627 c -0.656,0 -1.25,0.289 -1.621,0.773 -0.457,0.617 -0.683,1.562 -0.683,2.863 0,2.375 0.793,3.633 2.304,3.633 1.493,0 2.309,-1.258 2.309,-3.574 0,-1.371 -0.219,-2.285 -0.684,-2.922 -0.371,-0.496 -0.957,-0.773 -1.625,-0.773 z m 0,0.773 c 0.946,0 1.415,0.953 1.415,2.844 0,1.996 -0.458,2.929 -1.434,2.929 -0.926,0 -1.391,-0.972 -1.391,-2.902 0,-1.926 0.465,-2.871 1.41,-2.871 z"/>
    <path
       d="m 403.65247,435.59127 0,1.688 0.875,0 0,-1.688 1.043,0 0,-0.785 -1.043,0 0,-4.57 -0.648,0 -3.203,4.429 0,0.926 2.976,0 z m 0,-0.785 -2.211,0 2.211,-3.082 0,3.082 z"/>
    <path
       d="m 408.69247,430.23627 c -0.656,0 -1.25,0.289 -1.621,0.773 -0.457,0.617 -0.683,1.562 -0.683,2.863 0,2.375 0.793,3.633 2.304,3.633 1.493,0 2.309,-1.258 2.309,-3.574 0,-1.371 -0.219,-2.285 -0.684,-2.922 -0.371,-0.496 -0.957,-0.773 -1.625,-0.773 z m 0,0.773 c 0.946,0 1.415,0.953 1.415,2.844 0,1.996 -0.458,2.929 -1.434,2.929 -0.926,0 -1.391,-0.972 -1.391,-2.902 0,-1.926 0.465,-2.871 1.41,-2.871 z"/>
    <path
       d="m 387.38347,399.48627 -3.641,0 -0.527,3.835 0.805,0 c 0.41,-0.488 0.75,-0.656 1.296,-0.656 0.946,0 1.54,0.645 1.54,1.688 0,1.011 -0.586,1.629 -1.54,1.629 -0.769,0 -1.234,-0.387 -1.445,-1.18 l -0.875,0 c 0.121,0.574 0.219,0.852 0.43,1.109 0.398,0.539 1.113,0.844 1.91,0.844 1.422,0 2.418,-1.031 2.418,-2.519 0,-1.391 -0.926,-2.348 -2.281,-2.348 -0.496,0 -0.895,0.129 -1.301,0.43 l 0.277,-1.969 2.934,0 0,-0.863 z"/>
    <path
       d="m 390.94247,399.48627 c -0.656,0 -1.25,0.289 -1.621,0.773 -0.457,0.617 -0.683,1.562 -0.683,2.863 0,2.375 0.793,3.633 2.304,3.633 1.493,0 2.309,-1.258 2.309,-3.574 0,-1.371 -0.219,-2.285 -0.684,-2.922 -0.371,-0.496 -0.957,-0.773 -1.625,-0.773 z m 0,0.773 c 0.946,0 1.415,0.953 1.415,2.844 0,1.996 -0.458,2.929 -1.434,2.929 -0.926,0 -1.391,-0.972 -1.391,-2.902 0,-1.926 0.465,-2.871 1.41,-2.871 z"/>
    <path
       d="m 370.10247,370.57127 c -0.168,-1.152 -0.922,-1.835 -2,-1.835 -0.774,0 -1.469,0.378 -1.887,1.003 -0.441,0.684 -0.637,1.551 -0.637,2.832 0,1.18 0.176,1.934 0.594,2.563 0.379,0.566 0.996,0.871 1.773,0.871 1.344,0 2.309,-0.992 2.309,-2.371 0,-1.313 -0.898,-2.234 -2.16,-2.234 -0.695,0 -1.242,0.265 -1.621,0.781 0.008,-1.719 0.566,-2.672 1.57,-2.672 0.617,0 1.047,0.391 1.184,1.062 l 0.875,0 z m -2.118,1.602 c 0.844,0 1.372,0.586 1.372,1.531 0,0.883 -0.594,1.528 -1.403,1.528 -0.816,0 -1.433,-0.676 -1.433,-1.578 0,-0.875 0.597,-1.481 1.464,-1.481 z"/>
    <path
       d="m 373.44247,368.73627 c -0.656,0 -1.25,0.289 -1.621,0.773 -0.457,0.617 -0.683,1.562 -0.683,2.863 0,2.375 0.793,3.633 2.304,3.633 1.493,0 2.309,-1.258 2.309,-3.574 0,-1.371 -0.219,-2.285 -0.684,-2.922 -0.371,-0.496 -0.957,-0.773 -1.625,-0.773 z m 0,0.773 c 0.946,0 1.415,0.953 1.415,2.844 0,1.996 -0.458,2.929 -1.434,2.929 -0.926,0 -1.391,-0.972 -1.391,-2.902 0,-1.926 0.465,-2.871 1.41,-2.871 z"/>
    <path
       d="m 352.57047,338.23627 -4.714,0 0,0.863 3.812,0 c -1.684,2.394 -2.371,3.863 -2.898,6.18 l 0.937,0 c 0.387,-2.254 1.274,-4.192 2.863,-6.309 l 0,-0.734 z"/>
    <path
       d="m 355.69247,338.23627 c -0.656,0 -1.25,0.289 -1.621,0.773 -0.457,0.617 -0.683,1.562 -0.683,2.863 0,2.375 0.793,3.633 2.304,3.633 1.493,0 2.309,-1.258 2.309,-3.574 0,-1.371 -0.219,-2.285 -0.684,-2.922 -0.371,-0.496 -0.957,-0.773 -1.625,-0.773 z m 0,0.773 c 0.946,0 1.415,0.953 1.415,2.844 0,1.996 -0.458,2.929 -1.434,2.929 -0.926,0 -1.391,-0.972 -1.391,-2.902 0,-1.926 0.465,-2.871 1.41,-2.871 z"/>
    <path
       d="m 333.53947,310.82127 c 0.727,-0.433 0.965,-0.792 0.965,-1.457 0,-1.105 -0.867,-1.878 -2.121,-1.878 -1.242,0 -2.117,0.773 -2.117,1.878 0,0.653 0.238,1.012 0.953,1.457 -0.805,0.391 -1.203,0.977 -1.203,1.75 0,1.293 0.976,2.184 2.367,2.184 1.394,0 2.371,-0.891 2.371,-2.172 0,-0.785 -0.398,-1.371 -1.215,-1.762 z m -1.156,-2.562 c 0.746,0 1.226,0.437 1.226,1.125 0,0.656 -0.488,1.09 -1.226,1.09 -0.734,0 -1.223,-0.434 -1.223,-1.102 0,-0.676 0.489,-1.113 1.223,-1.113 z m 0,2.953 c 0.879,0 1.473,0.555 1.473,1.379 0,0.836 -0.594,1.391 -1.493,1.391 -0.855,0 -1.453,-0.567 -1.453,-1.391 0,-0.824 0.598,-1.379 1.473,-1.379 z"/>
    <path
       d="m 337.94247,307.48627 c -0.656,0 -1.25,0.289 -1.621,0.773 -0.457,0.617 -0.683,1.562 -0.683,2.863 0,2.375 0.793,3.633 2.304,3.633 1.493,0 2.309,-1.258 2.309,-3.574 0,-1.371 -0.219,-2.285 -0.684,-2.922 -0.371,-0.496 -0.957,-0.773 -1.625,-0.773 z m 0,0.773 c 0.946,0 1.415,0.953 1.415,2.844 0,1.996 -0.458,2.929 -1.434,2.929 -0.926,0 -1.391,-0.972 -1.391,-2.902 0,-1.926 0.465,-2.871 1.41,-2.871 z"/>
    <path
       d="m 312.42647,282.41927 c 0.168,1.152 0.926,1.836 2,1.836 0.777,0 1.48,-0.375 1.89,-1 0.446,-0.687 0.645,-1.551 0.645,-2.832 0,-1.184 -0.176,-1.937 -0.594,-2.562 -0.39,-0.567 -1.008,-0.875 -1.781,-0.875 -1.344,0 -2.309,0.992 -2.309,2.375 0,1.308 0.895,2.234 2.168,2.234 0.668,0 1.153,-0.238 1.614,-0.785 -0.012,1.719 -0.571,2.672 -1.575,2.672 -0.617,0 -1.043,-0.387 -1.183,-1.063 l -0.875,0 z m 2.148,-4.668 c 0.817,0 1.434,0.676 1.434,1.59 0,0.863 -0.606,1.48 -1.461,1.48 -0.848,0 -1.375,-0.585 -1.375,-1.531 0,-0.894 0.598,-1.539 1.402,-1.539 z"/>
    <path
       d="m 320.19247,276.98627 c -0.656,0 -1.25,0.289 -1.621,0.773 -0.457,0.617 -0.683,1.562 -0.683,2.863 0,2.375 0.793,3.633 2.304,3.633 1.493,0 2.309,-1.258 2.309,-3.574 0,-1.371 -0.219,-2.285 -0.684,-2.922 -0.371,-0.496 -0.957,-0.773 -1.625,-0.773 z m 0,0.773 c 0.946,0 1.415,0.953 1.415,2.844 0,1.996 -0.458,2.929 -1.434,2.929 -0.926,0 -1.391,-0.972 -1.391,-2.902 0,-1.926 0.465,-2.871 1.41,-2.871 z"/>
    <path
       d="m 296.72747,248.26327 0,5.016 0.875,0 0,-7.043 -0.578,0 c -0.309,1.082 -0.508,1.23 -1.86,1.402 l 0,0.625 1.563,0 z"/>
    <path
       d="m 302.44247,246.23627 c -0.656,0 -1.25,0.289 -1.621,0.773 -0.457,0.617 -0.683,1.562 -0.683,2.863 0,2.375 0.793,3.633 2.304,3.633 1.493,0 2.309,-1.258 2.309,-3.574 0,-1.371 -0.219,-2.285 -0.684,-2.922 -0.371,-0.496 -0.957,-0.773 -1.625,-0.773 z m 0,0.773 c 0.946,0 1.415,0.953 1.415,2.844 0,1.996 -0.458,2.929 -1.434,2.929 -0.926,0 -1.391,-0.972 -1.391,-2.902 0,-1.926 0.465,-2.871 1.41,-2.871 z"/>
    <path
       d="m 308.00247,246.23627 c -0.656,0 -1.25,0.289 -1.621,0.773 -0.457,0.617 -0.684,1.562 -0.684,2.863 0,2.375 0.793,3.633 2.305,3.633 1.492,0 2.309,-1.258 2.309,-3.574 0,-1.371 -0.219,-2.285 -0.684,-2.922 -0.371,-0.496 -0.957,-0.773 -1.625,-0.773 z m 0,0.773 c 0.945,0 1.414,0.953 1.414,2.844 0,1.996 -0.457,2.929 -1.434,2.929 -0.925,0 -1.39,-0.972 -1.39,-2.902 0,-1.926 0.465,-2.871 1.41,-2.871 z"/>
    <path
       d="m 279.13347,238.73627 c -0.656,0 -1.25,0.289 -1.621,0.773 -0.457,0.617 -0.684,1.562 -0.684,2.863 0,2.375 0.793,3.633 2.305,3.633 1.492,0 2.308,-1.258 2.308,-3.574 0,-1.371 -0.218,-2.285 -0.683,-2.922 -0.371,-0.496 -0.957,-0.773 -1.625,-0.773 z m 0,0.773 c 0.945,0 1.414,0.953 1.414,2.844 0,1.996 -0.457,2.929 -1.434,2.929 -0.925,0 -1.39,-0.972 -1.39,-2.902 0,-1.926 0.465,-2.871 1.41,-2.871 z"/>
    <path
       d="m 256.22747,271.51327 0,5.016 0.875,0 0,-7.043 -0.578,0 c -0.309,1.082 -0.508,1.23 -1.86,1.402 l 0,0.625 1.563,0 z"/>
    <path
       d="m 261.94247,269.48627 c -0.656,0 -1.25,0.289 -1.621,0.773 -0.457,0.617 -0.683,1.562 -0.683,2.863 0,2.375 0.793,3.633 2.304,3.633 1.493,0 2.309,-1.258 2.309,-3.574 0,-1.371 -0.219,-2.285 -0.684,-2.922 -0.371,-0.496 -0.957,-0.773 -1.625,-0.773 z m 0,0.773 c 0.946,0 1.415,0.953 1.415,2.844 0,1.996 -0.458,2.929 -1.434,2.929 -0.926,0 -1.391,-0.972 -1.391,-2.902 0,-1.926 0.465,-2.871 1.41,-2.871 z"/>
    <path
       d="m 240.93447,306.16527 -3.711,0 c 0.09,-0.578 0.406,-0.945 1.273,-1.453 l 0.992,-0.535 c 0.989,-0.535 1.496,-1.262 1.496,-2.125 0,-0.586 -0.242,-1.133 -0.66,-1.512 -0.418,-0.375 -0.933,-0.554 -1.601,-0.554 -0.895,0 -1.563,0.316 -1.949,0.914 -0.25,0.379 -0.36,0.812 -0.379,1.531 l 0.875,0 c 0.031,-0.477 0.089,-0.766 0.211,-0.996 0.23,-0.426 0.687,-0.684 1.214,-0.684 0.793,0 1.391,0.567 1.391,1.32 0,0.555 -0.328,1.036 -0.953,1.391 l -0.918,0.516 c -1.473,0.836 -1.899,1.5 -1.977,3.051 l 4.696,0 0,-0.864 z"/>
    <path
       d="m 244.19247,299.98627 c -0.656,0 -1.25,0.289 -1.621,0.773 -0.457,0.617 -0.683,1.562 -0.683,2.863 0,2.375 0.793,3.633 2.304,3.633 1.493,0 2.309,-1.258 2.309,-3.574 0,-1.371 -0.219,-2.285 -0.684,-2.922 -0.371,-0.496 -0.957,-0.773 -1.625,-0.773 z m 0,0.773 c 0.946,0 1.415,0.953 1.415,2.844 0,1.996 -0.458,2.929 -1.434,2.929 -0.926,0 -1.391,-0.972 -1.391,-2.902 0,-1.926 0.465,-2.871 1.41,-2.871 z"/>
    <path
       d="m 220.34847,334.55227 0.109,0 0.367,-0.012 c 0.965,0 1.465,0.438 1.465,1.281 0,0.883 -0.551,1.411 -1.465,1.411 -0.953,0 -1.422,-0.477 -1.48,-1.5 l -0.875,0 c 0.039,0.566 0.137,0.933 0.305,1.254 0.359,0.671 1.054,1.019 2.023,1.019 1.449,0 2.387,-0.863 2.387,-2.195 0,-0.891 -0.348,-1.391 -1.196,-1.676 0.657,-0.258 0.985,-0.758 0.985,-1.461 0,-1.211 -0.805,-1.937 -2.149,-1.937 -1.422,0 -2.179,0.773 -2.207,2.273 l 0.875,0 c 0.008,-0.426 0.051,-0.664 0.16,-0.883 0.2,-0.387 0.637,-0.625 1.184,-0.625 0.773,0 1.242,0.457 1.242,1.203 0,0.496 -0.179,0.793 -0.566,0.953 -0.238,0.098 -0.547,0.137 -1.164,0.149 l 0,0.746 z"/>
    <path
       d="m 226.44247,330.73627 c -0.656,0 -1.25,0.289 -1.621,0.773 -0.457,0.617 -0.683,1.562 -0.683,2.863 0,2.375 0.793,3.633 2.304,3.633 1.493,0 2.309,-1.258 2.309,-3.574 0,-1.371 -0.219,-2.285 -0.684,-2.922 -0.371,-0.496 -0.957,-0.773 -1.625,-0.773 z m 0,0.773 c 0.946,0 1.415,0.953 1.415,2.844 0,1.996 -0.458,2.929 -1.434,2.929 -0.926,0 -1.391,-0.972 -1.391,-2.902 0,-1.926 0.465,-2.871 1.41,-2.871 z"/>
    <path
       d="m 203.65247,366.84127 0,1.688 0.875,0 0,-1.688 1.043,0 0,-0.785 -1.043,0 0,-4.57 -0.648,0 -3.203,4.429 0,0.926 2.976,0 z m 0,-0.785 -2.211,0 2.211,-3.082 0,3.082 z"/>
    <path
       d="m 208.69247,361.48627 c -0.656,0 -1.25,0.289 -1.621,0.773 -0.457,0.617 -0.683,1.562 -0.683,2.863 0,2.375 0.793,3.633 2.304,3.633 1.493,0 2.309,-1.258 2.309,-3.574 0,-1.371 -0.219,-2.285 -0.684,-2.922 -0.371,-0.496 -0.957,-0.773 -1.625,-0.773 z m 0,0.773 c 0.946,0 1.415,0.953 1.415,2.844 0,1.996 -0.458,2.929 -1.434,2.929 -0.926,0 -1.391,-0.972 -1.391,-2.902 0,-1.926 0.465,-2.871 1.41,-2.871 z"/>
    <path
       d="m 187.38347,391.98627 -3.641,0 -0.527,3.835 0.805,0 c 0.41,-0.488 0.75,-0.656 1.296,-0.656 0.946,0 1.54,0.645 1.54,1.688 0,1.011 -0.586,1.629 -1.54,1.629 -0.769,0 -1.234,-0.387 -1.445,-1.18 l -0.875,0 c 0.121,0.574 0.219,0.852 0.43,1.109 0.398,0.539 1.113,0.844 1.91,0.844 1.422,0 2.418,-1.031 2.418,-2.519 0,-1.391 -0.926,-2.348 -2.281,-2.348 -0.496,0 -0.895,0.129 -1.301,0.43 l 0.277,-1.969 2.934,0 0,-0.863 z"/>
    <path
       d="m 190.94247,391.98627 c -0.656,0 -1.25,0.289 -1.621,0.773 -0.457,0.617 -0.683,1.562 -0.683,2.863 0,2.375 0.793,3.633 2.304,3.633 1.493,0 2.309,-1.258 2.309,-3.574 0,-1.371 -0.219,-2.285 -0.684,-2.922 -0.371,-0.496 -0.957,-0.773 -1.625,-0.773 z m 0,0.773 c 0.946,0 1.415,0.953 1.415,2.844 0,1.996 -0.458,2.929 -1.434,2.929 -0.926,0 -1.391,-0.972 -1.391,-2.902 0,-1.926 0.465,-2.871 1.41,-2.871 z"/>
    <path
       d="m 169.85247,424.57127 c -0.168,-1.152 -0.922,-1.835 -2,-1.835 -0.774,0 -1.469,0.378 -1.887,1.003 -0.441,0.684 -0.637,1.551 -0.637,2.832 0,1.18 0.176,1.934 0.594,2.563 0.379,0.566 0.996,0.871 1.773,0.871 1.344,0 2.309,-0.992 2.309,-2.371 0,-1.313 -0.898,-2.234 -2.16,-2.234 -0.695,0 -1.242,0.265 -1.621,0.781 0.008,-1.719 0.566,-2.672 1.57,-2.672 0.617,0 1.047,0.391 1.184,1.062 l 0.875,0 z m -2.118,1.602 c 0.844,0 1.372,0.586 1.372,1.531 0,0.883 -0.594,1.528 -1.403,1.528 -0.816,0 -1.433,-0.676 -1.433,-1.578 0,-0.875 0.597,-1.481 1.464,-1.481 z"/>
    <path
       d="m 173.19247,422.73627 c -0.656,0 -1.25,0.289 -1.621,0.773 -0.457,0.617 -0.683,1.562 -0.683,2.863 0,2.375 0.793,3.633 2.304,3.633 1.493,0 2.309,-1.258 2.309,-3.574 0,-1.371 -0.219,-2.285 -0.684,-2.922 -0.371,-0.496 -0.957,-0.773 -1.625,-0.773 z m 0,0.773 c 0.946,0 1.415,0.953 1.415,2.844 0,1.996 -0.458,2.929 -1.434,2.929 -0.926,0 -1.391,-0.972 -1.391,-2.902 0,-1.926 0.465,-2.871 1.41,-2.871 z"/>
    <path
       d="m 152.57047,453.48627 -4.714,0 0,0.863 3.812,0 c -1.684,2.394 -2.371,3.863 -2.898,6.18 l 0.937,0 c 0.387,-2.254 1.274,-4.192 2.863,-6.309 l 0,-0.734 z"/>
    <path
       d="m 155.69247,453.48627 c -0.656,0 -1.25,0.289 -1.621,0.773 -0.457,0.617 -0.683,1.562 -0.683,2.863 0,2.375 0.793,3.633 2.304,3.633 1.493,0 2.309,-1.258 2.309,-3.574 0,-1.371 -0.219,-2.285 -0.684,-2.922 -0.371,-0.496 -0.957,-0.773 -1.625,-0.773 z m 0,0.773 c 0.946,0 1.415,0.953 1.415,2.844 0,1.996 -0.458,2.929 -1.434,2.929 -0.926,0 -1.391,-0.972 -1.391,-2.902 0,-1.926 0.465,-2.871 1.41,-2.871 z"/>
    <path
       d="m 133.53947,487.32127 c 0.727,-0.433 0.965,-0.792 0.965,-1.457 0,-1.105 -0.867,-1.878 -2.121,-1.878 -1.242,0 -2.117,0.773 -2.117,1.878 0,0.653 0.238,1.012 0.953,1.457 -0.805,0.391 -1.203,0.977 -1.203,1.75 0,1.293 0.976,2.184 2.367,2.184 1.394,0 2.371,-0.891 2.371,-2.172 0,-0.785 -0.398,-1.371 -1.215,-1.762 z m -1.156,-2.562 c 0.746,0 1.226,0.437 1.226,1.125 0,0.656 -0.488,1.09 -1.226,1.09 -0.734,0 -1.223,-0.434 -1.223,-1.102 0,-0.676 0.489,-1.113 1.223,-1.113 z m 0,2.953 c 0.879,0 1.473,0.555 1.473,1.379 0,0.836 -0.594,1.391 -1.493,1.391 -0.855,0 -1.453,-0.567 -1.453,-1.391 0,-0.824 0.598,-1.379 1.473,-1.379 z"/>
    <path
       d="m 137.94247,483.98627 c -0.656,0 -1.25,0.289 -1.621,0.773 -0.457,0.617 -0.683,1.562 -0.683,2.863 0,2.375 0.793,3.633 2.304,3.633 1.493,0 2.309,-1.258 2.309,-3.574 0,-1.371 -0.219,-2.285 -0.684,-2.922 -0.371,-0.496 -0.957,-0.773 -1.625,-0.773 z m 0,0.773 c 0.946,0 1.415,0.953 1.415,2.844 0,1.996 -0.458,2.929 -1.434,2.929 -0.926,0 -1.391,-0.972 -1.391,-2.902 0,-1.926 0.465,-2.871 1.41,-2.871 z"/>
    <path
       d="m 112.42647,520.16927 c 0.168,1.152 0.926,1.836 2,1.836 0.777,0 1.48,-0.375 1.89,-1 0.446,-0.687 0.645,-1.551 0.645,-2.832 0,-1.184 -0.176,-1.937 -0.594,-2.562 -0.39,-0.567 -1.008,-0.875 -1.781,-0.875 -1.344,0 -2.309,0.992 -2.309,2.375 0,1.308 0.895,2.234 2.168,2.234 0.668,0 1.153,-0.238 1.614,-0.785 -0.012,1.719 -0.571,2.672 -1.575,2.672 -0.617,0 -1.043,-0.387 -1.183,-1.063 l -0.875,0 z m 2.148,-4.668 c 0.817,0 1.434,0.676 1.434,1.59 0,0.863 -0.606,1.48 -1.461,1.48 -0.848,0 -1.375,-0.585 -1.375,-1.531 0,-0.894 0.598,-1.539 1.402,-1.539 z"/>
    <path
       d="m 120.19247,514.73627 c -0.656,0 -1.25,0.289 -1.621,0.773 -0.457,0.617 -0.683,1.562 -0.683,2.863 0,2.375 0.793,3.633 2.304,3.633 1.493,0 2.309,-1.258 2.309,-3.574 0,-1.371 -0.219,-2.285 -0.684,-2.922 -0.371,-0.496 -0.957,-0.773 -1.625,-0.773 z m 0,0.773 c 0.946,0 1.415,0.953 1.415,2.844 0,1.996 -0.458,2.929 -1.434,2.929 -0.926,0 -1.391,-0.972 -1.391,-2.902 0,-1.926 0.465,-2.871 1.41,-2.871 z"/>
    <path
       d="m 91.727469,547.51327 0,5.016 0.875,0 0,-7.043 -0.578,0 c -0.309,1.082 -0.508,1.23 -1.86,1.402 l 0,0.625 1.563,0 z"/>
    <path
       d="m 97.442469,545.48627 c -0.656,0 -1.25,0.289 -1.621,0.773 -0.457,0.617 -0.683,1.562 -0.683,2.863 0,2.375 0.793,3.633 2.304,3.633 1.493,0 2.309,-1.258 2.309,-3.574 0,-1.371 -0.219,-2.285 -0.684,-2.922 -0.371,-0.496 -0.957,-0.773 -1.625,-0.773 z m 0,0.773 c 0.946,0 1.415,0.953 1.415,2.844 0,1.996 -0.458,2.929 -1.434,2.929 -0.926,0 -1.391,-0.972 -1.391,-2.902 0,-1.926 0.465,-2.871 1.41,-2.871 z"/>
    <path
       d="m 103.00247,545.48627 c -0.656,0 -1.25,0.289 -1.621,0.773 -0.457,0.617 -0.684,1.562 -0.684,2.863 0,2.375 0.793,3.633 2.305,3.633 1.492,0 2.309,-1.258 2.309,-3.574 0,-1.371 -0.219,-2.285 -0.684,-2.922 -0.371,-0.496 -0.957,-0.773 -1.625,-0.773 z m 0,0.773 c 0.945,0 1.414,0.953 1.414,2.844 0,1.996 -0.457,2.929 -1.434,2.929 -0.925,0 -1.39,-0.972 -1.39,-2.902 0,-1.926 0.465,-2.871 1.41,-2.871 z"/>
  </g>
</svg>
